# xmcd
#
# Track frame offsets: 
#        150
#        11426
#        22886
#        33574
#        44289
#        54510
#        64634
#        73030
#        84360
#        96511
#        109582
#        123152
#        135276
#        144085
#        154819
#        165814
#        174039
#        185142
#        195768
#        208380
#        219304
#        229892
#        242126
#        252127
#        264981
#
# Disc length: 3672 seconds
#
# Revision: 3
# Processed by: cddbd v1.5.2PL0 Copyright (c) Steve Scherf et al.
# Submitted via: ExactAudioCopyFreeDBPlugin 1.0
#
DISCID=420e5619
DTITLE=Various Artist - Northern Soul:  The Early Years [Real Gone Mu
DTITLE=sic]
DYEAR=2015
DGENRE=Soul
TTITLE0=The Exciters - Tell Him
TTITLE1=Odessa Harris - A Rockin' Good Way
TTITLE2=Eddie Holland - Jamie
TTITLE3=Dee Clark - Hold On
TTITLE4=Emorise Kelley - The Biggest Fool
TTITLE5=Mary Wells - Come to Me
TTITLE6=Lou Rawls - In My Little Black Book
TTITLE7=Tiny Topsy - Just a Little Bit
TTITLE8=The Satintones - A Love That Never Can Be
TTITLE9=Timmy Shaw - Thunder in My Heart
TTITLE10=Sugar Pie DeSanto - I Want to Know
TTITLE11=The Miracles - If Your Mother Only Knew
TTITLE12=Danny Owens - You're a Little Too Late
TTITLE13=Don McKenzie - Whose Heart (Are You Gonna Break Now)
TTITLE14=Benny Spellman - Lipstick Traces
TTITLE15=The Destinations - Come on Let Me Love You
TTITLE16=The Radiants - Heartbreak Society
TTITLE17=The Pentagons - I Wonder (If Your Love Will Ever Belong)
TTITLE18=Gladys Knight and The Pips - Letter Full of Tears
TTITLE19=The Barons - While the Cat's Away
TTITLE20=Mitty Collier - Don't Let Her Take My Baby
TTITLE21=The Temptations - Check Yourself
TTITLE22=Big Dee Irwin - Everybody's Got a Dance But Me
TTITLE23=Johnny and Jackey - Someday We'll Be Together
TTITLE24=Betty and Ray - You're Too Much
EXTD=
EXTT0=
EXTT1=
EXTT2=
EXTT3=
EXTT4=
EXTT5=
EXTT6=
EXTT7=
EXTT8=
EXTT9=
EXTT10=
EXTT11=
EXTT12=
EXTT13=
EXTT14=
EXTT15=
EXTT16=
EXTT17=
EXTT18=
EXTT19=
EXTT20=
EXTT21=
EXTT22=
EXTT23=
EXTT24=
PLAYORDER=
